<svg width="24" height="23" viewBox="0 0 24 23" fill="none" xmlns="http://www.w3.org/2000/svg">
<path d="M19.3 7.23542C19.2166 7.23542 19.1458 7.21944 19.0875 7.1875C19.0291 7.15556 18.9833 7.09965 18.95 7.01979L18.225 5.39062L16.4 4.62396C16.3166 4.59201 16.2583 4.54809 16.225 4.49219C16.1916 4.43628 16.175 4.3684 16.175 4.28854C16.175 4.20868 16.1916 4.1408 16.225 4.0849C16.2583 4.02899 16.3166 3.98507 16.4 3.95312L18.225 3.21042L18.95 1.65312C18.9833 1.57326 19.0291 1.51736 19.0875 1.48542C19.1458 1.45347 19.2166 1.4375 19.3 1.4375C19.3833 1.4375 19.4541 1.45347 19.5125 1.48542C19.5708 1.51736 19.6166 1.57326 19.65 1.65312L20.375 3.21042L22.2 3.95312C22.2833 3.98507 22.3416 4.02899 22.375 4.0849C22.4083 4.1408 22.425 4.20868 22.425 4.28854C22.425 4.3684 22.4083 4.43628 22.375 4.49219C22.3416 4.54809 22.2833 4.59201 22.2 4.62396L20.375 5.39062L19.65 7.01979C19.6166 7.09965 19.5708 7.15556 19.5125 7.1875C19.4541 7.21944 19.3833 7.23542 19.3 7.23542ZM19.3 21.5146C19.2333 21.5146 19.1666 21.4986 19.1 21.4667C19.0333 21.4347 18.9833 21.3788 18.95 21.299L18.225 19.7417L16.425 18.999C16.3416 18.967 16.2833 18.9231 16.25 18.8672C16.2166 18.8113 16.2 18.7434 16.2 18.6635C16.2 18.5837 16.2166 18.5158 16.25 18.4599C16.2833 18.404 16.3416 18.3601 16.425 18.3281L18.225 17.5854L18.95 15.9323C18.9833 15.8524 19.0291 15.7965 19.0875 15.7646C19.1458 15.7326 19.2166 15.7167 19.3 15.7167C19.3833 15.7167 19.4541 15.7326 19.5125 15.7646C19.5708 15.7965 19.6166 15.8524 19.65 15.9323L20.375 17.5854L22.175 18.3281C22.2583 18.3601 22.3166 18.404 22.35 18.4599C22.3833 18.5158 22.4 18.5837 22.4 18.6635C22.4 18.7434 22.3833 18.8113 22.35 18.8672C22.3166 18.9231 22.2583 18.967 22.175 18.999L20.375 19.7417L19.65 21.299C19.6166 21.3788 19.5666 21.4347 19.5 21.4667C19.4333 21.4986 19.3666 21.5146 19.3 21.5146ZM8.32498 17.3698C8.19164 17.3698 8.06248 17.3339 7.93748 17.262C7.81248 17.1901 7.71664 17.0903 7.64998 16.9625L6.02498 13.6323L2.52498 12.1229C2.39164 12.059 2.28748 11.9672 2.21248 11.8474C2.13748 11.7276 2.09998 11.6038 2.09998 11.476C2.09998 11.3483 2.13748 11.2245 2.21248 11.1047C2.28748 10.9849 2.39164 10.8931 2.52498 10.8292L6.02498 9.31979L7.64998 6.01354C7.71664 5.86979 7.81248 5.76198 7.93748 5.6901C8.06248 5.61823 8.19164 5.58229 8.32498 5.58229C8.45831 5.58229 8.58748 5.61823 8.71248 5.6901C8.83748 5.76198 8.93331 5.86181 8.99998 5.98958L10.65 9.31979L14.125 10.8292C14.275 10.8931 14.3875 10.9849 14.4625 11.1047C14.5375 11.2245 14.575 11.3483 14.575 11.476C14.575 11.6038 14.5375 11.7276 14.4625 11.8474C14.3875 11.9672 14.275 12.059 14.125 12.1229L10.65 13.6323L8.99998 16.9625C8.93331 17.1062 8.83748 17.2101 8.71248 17.274C8.58748 17.3378 8.45831 17.3698 8.32498 17.3698Z" fill="#4318FF"/>
</svg>
