<svg width="14" height="14" viewBox="0 0 14 14" fill="none" xmlns="http://www.w3.org/2000/svg">
<path d="M10.1242 10.1194C9.97601 9.97198 9.9019 9.79636 9.9019 9.59253C9.9019 9.3887 9.97601 9.21532 10.1242 9.07239L11.4581 7.7458H5.7826C5.57322 7.7458 5.39678 7.67413 5.25327 7.53078C5.10976 7.38742 5.03801 7.21116 5.03801 7.002C5.03801 6.79283 5.10976 6.61767 5.25327 6.4765C5.39678 6.33533 5.57322 6.26475 5.7826 6.26475H11.4205L10.0572 4.90891C9.92152 4.78007 9.85545 4.61541 9.85899 4.41494C9.86253 4.21448 9.93975 4.04023 10.0906 3.89217C10.2319 3.74411 10.4085 3.67184 10.6204 3.67537C10.8323 3.67888 11.0124 3.75434 11.1606 3.90174L13.7777 6.50454C13.8539 6.58213 13.91 6.66534 13.946 6.75417C13.982 6.84301 14 6.93417 14 7.02764C14 7.12112 13.982 7.21117 13.946 7.29779C13.91 7.38442 13.8539 7.46629 13.7777 7.5434L11.1688 10.1381C11.0331 10.273 10.8639 10.3405 10.6612 10.3405C10.4585 10.3405 10.2795 10.2668 10.1242 10.1194ZM1.49982 14C1.08951 14 0.736962 13.8544 0.442177 13.5633C0.147392 13.2722 0 12.9241 0 12.5189V1.49161C0 1.08355 0.147392 0.732923 0.442177 0.439746C0.736962 0.146582 1.08951 0 1.49982 0H6.29995C6.50933 0 6.68577 0.0737427 6.82928 0.221228C6.97278 0.368726 7.04454 0.546749 7.04454 0.755295C7.04454 0.963842 6.97278 1.1387 6.82928 1.27986C6.68577 1.42103 6.50933 1.49161 6.29995 1.49161H1.49982V12.5189H6.29995C6.50933 12.5189 6.68577 12.5906 6.82928 12.734C6.97278 12.8773 7.04454 13.0536 7.04454 13.2627C7.04454 13.4719 6.97278 13.6471 6.82928 13.7882C6.68577 13.9294 6.50933 14 6.29995 14H1.49982Z" fill="#1B2559"/>
</svg>
