<svg width="33" height="34" viewBox="0 0 33 34" fill="none" xmlns="http://www.w3.org/2000/svg">
<path fill-rule="evenodd" clip-rule="evenodd" d="M8.05032 11.5853C7.66825 11.7792 7.33024 12.0454 7.05615 12.3681C6.91389 12.5419 6.78916 12.7286 6.68379 12.9255V12.9542L6.56955 13.1674C6.24593 13.9967 6.24593 14.912 6.56955 15.7414C6.79001 16.2366 7.13316 16.6714 7.56857 17.0075C8.00398 17.3435 8.51826 17.5703 9.06576 17.6678C9.91191 17.8317 10.6353 17.5735 11.4138 18.0038C11.7893 18.227 12.0699 18.5731 12.205 18.9793C12.2906 19.2142 12.3265 19.4633 12.3105 19.7119C12.2945 19.9605 12.227 20.2035 12.1119 20.4262C11.5027 21.4714 10.7538 21.4386 9.57343 21.4386C8.88805 21.4386 2.46575 21.4673 2.38113 21.4386C2.35025 21.4136 2.3268 21.381 2.31338 21.3443C1.54137 18.9734 1.41607 16.4493 1.94949 14.0175C2.4829 11.5857 3.65696 9.32913 5.35744 7.46725C7.05792 5.60537 9.22681 4.2016 11.6533 3.39254C14.0798 2.58347 16.6811 2.39665 19.2042 2.85025C21.7273 3.30386 24.0862 4.38244 26.0515 5.98106C28.0168 7.57968 29.5214 9.6439 30.4191 11.9729C31.3168 14.3019 31.577 16.8163 31.1743 19.2716C30.7716 21.7269 29.7197 24.0393 28.121 25.984V28.3326C30.2377 26.2982 31.7458 23.7461 32.4849 20.9477C33.2241 18.1493 33.1668 15.2091 32.319 12.4398C31.4712 9.67046 29.8646 7.17543 27.6701 5.21994C25.4756 3.26445 22.7752 1.92159 19.8559 1.3341C16.9365 0.746615 13.9074 0.936462 11.0906 1.88346C8.27372 2.83046 5.77441 4.49922 3.85829 6.71234C1.94216 8.92546 0.680837 11.6002 0.208427 14.4523C-0.263983 17.3044 0.0701462 20.2272 1.17533 22.91H2.88881C5.68534 22.951 9.37456 22.8731 10.3942 22.869C11.1764 22.8631 11.932 22.5929 12.5305 22.105C13.1291 21.6172 13.5331 20.9423 13.673 20.1967C13.7471 19.7996 13.7471 19.3928 13.673 18.9957C13.6239 18.6576 13.5075 18.3318 13.3303 18.0366C13.1844 17.7609 12.9946 17.5091 12.7677 17.2907L12.3996 16.9915C10.8553 15.8766 9.72994 16.6431 8.6934 16.0652C8.46834 15.9323 8.2736 15.7564 8.12097 15.5482C7.96834 15.34 7.86104 15.1039 7.80562 14.8543C7.75021 14.6047 7.7478 14.3467 7.7986 14.0961C7.8494 13.8456 7.95237 13.6077 8.10114 13.3969C8.21537 13.237 8.59188 12.8518 8.81611 12.819C9.17132 12.6845 9.55223 12.6258 9.93299 12.6468C10.4449 12.6468 13.4995 12.6468 13.7407 12.6468C13.7851 12.1628 13.7851 11.6758 13.7407 11.1918C13.7195 11.1918 13.7407 11.1918 13.6773 11.1713H9.84416C9.221 11.1417 8.60195 11.2838 8.05879 11.5812L8.05032 11.5853ZM16.4103 11.1754H18.1196L21.5042 16.7865L24.8888 11.1754H26.615L26.5177 11.3352V29.6565C24.6085 31.0879 22.3982 32.096 20.043 32.6097C17.6878 33.1234 15.245 33.1301 12.8868 32.6294C10.5286 32.1287 8.31256 31.1328 6.39499 29.7119C4.47742 28.291 2.905 26.4798 1.78877 24.406H3.64613C4.70057 26.118 6.11026 27.5994 7.7861 28.7564C9.46195 29.9134 11.3675 30.7209 13.3821 31.1277C15.3966 31.5345 17.4764 31.5319 19.4898 31.1199C21.5032 30.7079 23.4065 29.8956 25.0791 28.7343V13.7166L21.4957 19.7007L16.4272 11.159L16.4103 11.1754ZM16.4103 22.8895H17.8741V16.4094L16.4103 14.0486V22.8895Z" fill="#315266"/>
</svg>
